<svg width="24" height="24" viewBox="0 0 24 24" fill="none" xmlns="http://www.w3.org/2000/svg">
<path d="M10.1567 15.9366L11.8261 14.5297L11.8261 19.6429C11.8261 19.7376 11.8633 19.8285 11.9295 19.8954C11.9957 19.9624 12.0855 20 12.1791 20C12.2727 20 12.3624 19.9624 12.4286 19.8954C12.4948 19.8285 12.532 19.7376 12.532 19.6429L12.532 14.5297L14.2014 15.9366C14.2735 15.9972 14.3664 16.0263 14.4597 16.0176C14.5531 16.0089 14.6392 15.9631 14.6991 15.8902C14.759 15.8172 14.7878 15.7232 14.7792 15.6288C14.7706 15.5344 14.7253 15.4473 14.6532 15.3867L12.4049 13.4907C12.3863 13.4755 12.3662 13.4624 12.3449 13.4514C12.3028 13.4319 12.2572 13.4209 12.2108 13.4192C12.1647 13.4198 12.1191 13.4295 12.0767 13.4478L12.0379 13.4692C12.0193 13.4784 12.0016 13.4891 11.9849 13.5014L9.73671 15.3974C9.69192 15.4603 9.66859 15.5363 9.67025 15.6138C9.67191 15.6913 9.69846 15.7662 9.7459 15.8271C9.79334 15.888 9.85909 15.9316 9.9332 15.9514C10.0073 15.9711 10.0858 15.9659 10.1567 15.9366Z" fill="white"/>
<path d="M5.82353 7.28481H4.05882C3.96522 7.28481 3.87545 7.24719 3.80926 7.18023C3.74307 7.11327 3.70588 7.02245 3.70588 6.92775V3.35707C3.70588 3.26237 3.6687 3.17155 3.60251 3.10458C3.53632 3.03762 3.44655 3 3.35294 3C3.25934 3 3.16956 3.03762 3.10337 3.10458C3.03718 3.17155 3 3.26237 3 3.35707V6.95631C3 7.24041 3.11155 7.51288 3.31012 7.71377C3.50869 7.91466 3.77801 8.02751 4.05882 8.02751H5.82353C5.91714 8.02751 6.00691 7.98989 6.0731 7.92293C6.13929 7.85597 6.17647 7.76515 6.17647 7.67045C6.17647 7.57575 6.13929 7.48492 6.0731 7.41796C6.00691 7.351 5.91714 7.31338 5.82353 7.31338V7.28481Z" fill="white"/>
<path d="M20.6471 3C20.5535 3 20.4637 3.03762 20.3975 3.10458C20.3313 3.17155 20.2941 3.26237 20.2941 3.35707V6.95631C20.2941 7.05101 20.257 7.14183 20.1908 7.2088C20.1246 7.27576 20.0348 7.31338 19.9412 7.31338H18.1765C18.0829 7.31338 17.9931 7.351 17.9269 7.41796C17.8607 7.48492 17.8236 7.57575 17.8236 7.67045C17.8236 7.76515 17.8607 7.85597 17.9269 7.92293C17.9931 7.98989 18.0829 8.02751 18.1765 8.02751H19.9412C20.222 8.02751 20.4913 7.91466 20.6899 7.71377C20.8885 7.51288 21 7.24041 21 6.95631V3.35707C21 3.26237 20.9628 3.17155 20.8966 3.10458C20.8305 3.03762 20.7407 3 20.6471 3V3Z" fill="white"/>
<path d="M18.1765 5.49954C18.2701 5.49954 18.3598 5.46192 18.426 5.39495C18.4922 5.32799 18.5294 5.23717 18.5294 5.14247C18.5294 5.04777 18.4922 4.95695 18.426 4.88998C18.3598 4.82302 18.2701 4.7854 18.1765 4.7854H5.82352C5.72992 4.7854 5.64014 4.82302 5.57396 4.88998C5.50777 4.95695 5.47058 5.04777 5.47058 5.14247C5.47058 5.23717 5.50777 5.32799 5.57396 5.39495C5.64014 5.46192 5.72992 5.49954 5.82352 5.49954H6.9847C6.9838 5.5138 6.9838 5.52812 6.9847 5.54238V10.7449C6.98563 11.3033 7.20532 11.8386 7.59564 12.2335C7.98595 12.6284 8.51506 12.8506 9.06705 12.8516H15.4906C16.0426 12.8506 16.5717 12.6284 16.962 12.2335C17.3523 11.8386 17.572 11.3033 17.5729 10.7449V5.55667C17.5738 5.5424 17.5738 5.52809 17.5729 5.51382L18.1765 5.49954ZM11.0929 12.1374H9.96352V5.55667C9.96442 5.5424 9.96442 5.52809 9.96352 5.51382H11.1176C11.1167 5.52809 11.1167 5.5424 11.1176 5.55667L11.0929 12.1374ZM7.68352 10.7449V5.55667C7.68442 5.5424 7.68442 5.52809 7.68352 5.51382H9.27529C9.27439 5.52809 9.27439 5.5424 9.27529 5.55667V12.1374H9.07764C8.8954 12.1398 8.71451 12.1055 8.54547 12.0366C8.37642 11.9677 8.22259 11.8655 8.0929 11.7359C7.96321 11.6064 7.86024 11.4521 7.78996 11.2819C7.71969 11.1118 7.68351 10.9292 7.68352 10.7449ZM16.86 5.55667V10.7449C16.86 11.1142 16.715 11.4684 16.4568 11.7296C16.1987 11.9907 15.8486 12.1374 15.4835 12.1374H11.7988V5.55667C11.7997 5.5424 11.7997 5.52809 11.7988 5.51382H13.7823C13.7814 5.52809 13.7814 5.5424 13.7823 5.55667V7.77763C13.7823 7.82452 13.7915 7.87095 13.8092 7.91427C13.8269 7.95759 13.8529 7.99696 13.8857 8.03011C13.9185 8.06327 13.9574 8.08957 14.0002 8.10752C14.043 8.12546 14.0889 8.1347 14.1353 8.1347C14.1816 8.1347 14.2275 8.12546 14.2704 8.10752C14.3132 8.08957 14.3521 8.06327 14.3849 8.03011C14.4176 7.99696 14.4436 7.95759 14.4614 7.91427C14.4791 7.87095 14.4882 7.82452 14.4882 7.77763V5.55667C14.4891 5.5424 14.4891 5.52809 14.4882 5.51382H15.3176C15.3167 5.52809 15.3167 5.5424 15.3176 5.55667V6.88496C15.3176 6.97966 15.3548 7.07048 15.421 7.13744C15.4872 7.20441 15.577 7.24203 15.6706 7.24203C15.7642 7.24203 15.854 7.20441 15.9201 7.13744C15.9863 7.07048 16.0235 6.97966 16.0235 6.88496V5.55667C16.0244 5.5424 16.0244 5.52809 16.0235 5.51382H16.8847C16.8754 5.52747 16.8672 5.54179 16.86 5.55667Z" fill="white"/>
</svg>
